# xmcd CD database file generated by Grip 3.2.0
# 
# Track frame offsets:
#       150
#       18734
#       34598
#       46179
#       60551
#       73421
#       85922
#       100058
#       112887
#       122928
#       128770
#       142762
#       157994
#       168478
#       182815
#       197212
#       205116
#       211613
#       222957
# 
# Disc length: 3078 seconds
# 
# Revision: 2
# Processed by: cddbd v1.5.2PL0 Copyright (c) Steve Scherf et al.
# Submitted via: Grip 3.2.0
# 
DISCID=0b0c0413
DTITLE=Alexandru Andrieş - Blues expert
DYEAR=2003
DGENRE=Blues
TTITLE0=Sînt un derbedeu
TTITLE1=Tudy de la Bucureşti
TTITLE2=A.M. blues
TTITLE3=Femei la volan
TTITLE4=Decizii, decizii, decizii
TTITLE5=Îmi place vinul
TTITLE6=Carmen, Mihaela, Monica (şi Dana)
TTITLE7=Nu vorbi cu doamna
TTITLE8=Duel mic
TTITLE9=T.V. blues
TTITLE10=Oricum, nu ţine
TTITLE11=Blues cu conspiraţie
TTITLE12=Tu, la pian?!?
TTITLE13=La mine-n cîntec
TTITLE14=Am o problemă
TTITLE15=Domnul Stere
TTITLE16=Ştiu o fată (e frumoasă foc)
TTITLE17=Ce mai faci?
TTITLE18=Cortina
EXTD=disc de ascultare si de inveselire
EXTT0=
EXTT1=
EXTT2=
EXTT3=
EXTT4=
EXTT5=
EXTT6=
EXTT7=
EXTT8=
EXTT9=
EXTT10=
EXTT11=
EXTT12=
EXTT13=
EXTT14=
EXTT15=
EXTT16=
EXTT17=
EXTT18=
PLAYORDER=
